<svg width="276" height="244" viewBox="0 0 276 244" fill="none" xmlns="http://www.w3.org/2000/svg">
<path d="M55.2 55.5273C47.61 55.5273 41.1148 52.8212 35.7144 47.4089C30.3048 42.0058 27.6 35.5074 27.6 27.9137C27.6 20.3199 30.3048 13.8169 35.7144 8.40465C41.1148 3.00158 47.61 0.300049 55.2 0.300049C62.79 0.300049 69.2852 3.00158 74.6856 8.40465C80.0952 13.8169 82.8 20.3199 82.8 27.9137C82.8 35.5074 80.0952 42.0058 74.6856 47.4089C69.2852 52.8212 62.79 55.5273 55.2 55.5273ZM0 110.755V102.816C0 97.2929 1.495 92.2304 4.485 87.6282C7.475 83.0259 11.615 79.5742 16.905 77.2731C22.885 74.7418 29.0352 72.7858 35.3556 71.4052C41.6852 70.0245 48.3 69.3341 55.2 69.3341C62.1 69.3341 68.7148 70.0245 75.0444 71.4052C81.3648 72.7858 87.515 74.7418 93.495 77.2731C98.785 79.5742 102.925 83.0259 105.915 87.6282C108.905 92.2304 110.4 97.2929 110.4 102.816V110.755H0ZM220.8 55.5273C213.21 55.5273 206.71 52.8212 201.301 47.4089C195.9 42.0058 193.2 35.5074 193.2 27.9137C193.2 20.3199 195.9 13.8169 201.301 8.40465C206.71 3.00158 213.21 0.300049 220.8 0.300049C228.39 0.300049 234.89 3.00158 240.299 8.40465C245.7 13.8169 248.4 20.3199 248.4 27.9137C248.4 35.5074 245.7 42.0058 240.299 47.4089C234.89 52.8212 228.39 55.5273 220.8 55.5273ZM165.6 110.755V102.816C165.6 97.2929 167.095 92.2304 170.085 87.6282C173.075 83.0259 177.215 79.5742 182.505 77.2731C188.485 74.7418 194.635 72.7858 200.956 71.4052C207.285 70.0245 213.9 69.3341 220.8 69.3341C227.7 69.3341 234.315 70.0245 240.644 71.4052C246.965 72.7858 253.115 74.7418 259.095 77.2731C264.385 79.5742 268.525 83.0259 271.515 87.6282C274.505 92.2304 276 97.2929 276 102.816V110.755H165.6ZM45.54 239.158L9.66 203.26C8.28 201.88 7.3048 200.384 6.7344 198.773C6.1548 197.162 5.865 195.436 5.865 193.596C5.865 191.755 6.1548 190.029 6.7344 188.418C7.3048 186.807 8.28 185.311 9.66 183.931L45.885 147.688C48.415 145.157 51.52 143.891 55.2 143.891C58.88 143.891 62.1 145.272 64.86 148.033C67.39 150.564 68.655 153.786 68.655 157.698C68.655 161.61 67.39 164.831 64.86 167.363L52.44 179.789H223.56L210.795 167.017C208.265 164.486 207 161.38 207 157.698C207 154.016 208.38 150.794 211.14 148.033C213.67 145.502 216.89 144.236 220.8 144.236C224.71 144.236 227.93 145.502 230.46 148.033L266.34 183.931C267.72 185.311 268.7 186.807 269.279 188.418C269.85 190.029 270.135 191.755 270.135 193.596C270.135 195.436 269.85 197.162 269.279 198.773C268.7 200.384 267.72 201.88 266.34 203.26L230.115 239.503C227.585 242.034 224.48 243.3 220.8 243.3C217.12 243.3 213.9 241.919 211.14 239.158C208.61 236.627 207.345 233.405 207.345 229.493C207.345 225.581 208.61 222.36 211.14 219.828L223.56 207.402H52.44L65.205 220.174C67.735 222.705 69 225.811 69 229.493C69 233.175 67.62 236.397 64.86 239.158C62.33 241.689 59.11 242.955 55.2 242.955C51.29 242.955 48.07 241.689 45.54 239.158Z" fill="#0D0D0D"/>
</svg>
