<svg width="351" height="191" viewBox="0 0 351 191" fill="none" xmlns="http://www.w3.org/2000/svg">
<path d="M318.333 63.6667H185.429C172.377 26.5808 137.042 0 95.5 0C42.8158 0 0 42.8158 0 95.5C0 148.184 42.8158 191 95.5 191C137.042 191 172.377 164.419 185.429 127.333H191L222.833 159.167L254.667 127.333L286.5 159.167L350.167 94.8633L318.333 63.6667ZM95.5 143.25C69.2375 143.25 47.75 121.763 47.75 95.5C47.75 69.2375 69.2375 47.75 95.5 47.75C121.762 47.75 143.25 69.2375 143.25 95.5C143.25 121.763 121.762 143.25 95.5 143.25Z" fill="#0D0D0D"/>
</svg>
