<svg width="96" height="96" viewBox="0 0 96 96" fill="none" xmlns="http://www.w3.org/2000/svg">
<path d="M6.12505 12.15L3.80005 11.15C3.46672 11.0167 3.27105 10.775 3.21305 10.425C3.15438 10.075 3.25005 9.77503 3.50005 9.52503L6.65005 6.37503C6.88338 6.14169 7.15838 5.97503 7.47505 5.87503C7.79172 5.77503 8.11672 5.75836 8.45005 5.82503L9.75005 6.10003C8.86672 7.15003 8.16272 8.10436 7.63805 8.96303C7.11272 9.82103 6.60838 10.8834 6.12505 12.15ZM20.8251 2.40003C20.9584 2.40003 21.0917 2.43336 21.225 2.50003C21.3584 2.56669 21.4751 2.65003 21.5751 2.75003C21.6751 2.85003 21.7584 2.96669 21.8251 3.10003C21.8917 3.23336 21.925 3.36669 21.925 3.50003C21.9917 5.05003 21.6627 6.65836 20.938 8.32503C20.2127 9.99169 19.1917 11.4834 17.875 12.8C16.975 13.7 16.1084 14.4207 15.275 14.962C14.4417 15.504 13.4584 16.0167 12.325 16.5C12.1084 16.5834 11.8877 16.625 11.663 16.625C11.4377 16.625 11.2417 16.5417 11.075 16.375L7.95005 13.25C7.78338 13.0834 7.70005 12.8874 7.70005 12.662C7.70005 12.4374 7.74172 12.2167 7.82505 12C8.30838 10.8834 8.82105 9.90403 9.36305 9.06203C9.90438 8.22069 10.625 7.35003 11.525 6.45003C12.8417 5.13336 14.3334 4.11236 16 3.38703C17.6667 2.66236 19.2751 2.33336 20.8251 2.40003ZM14.475 9.85003C14.8584 10.2334 15.3294 10.425 15.888 10.425C16.446 10.425 16.9167 10.2334 17.3 9.85003C17.6834 9.46669 17.875 8.99569 17.875 8.43703C17.875 7.87903 17.6834 7.40836 17.3 7.02503C16.9167 6.64169 16.446 6.45003 15.888 6.45003C15.3294 6.45003 14.8584 6.64169 14.475 7.02503C14.0917 7.40836 13.9 7.87903 13.9 8.43703C13.9 8.99569 14.0917 9.46669 14.475 9.85003ZM12.175 18.2C13.4417 17.7167 14.5084 17.2127 15.375 16.688C16.2417 16.1627 17.2 15.4584 18.25 14.575L18.5 15.875C18.5667 16.2084 18.5501 16.5377 18.4501 16.863C18.3501 17.1877 18.1834 17.4667 17.95 17.7L14.8 20.85C14.55 21.1 14.25 21.1917 13.9 21.125C13.55 21.0584 13.3084 20.8584 13.175 20.525L12.175 18.2ZM4.05005 16.05C4.63338 15.4667 5.34172 15.1707 6.17505 15.162C7.00838 15.154 7.71672 15.4417 8.30005 16.025C8.88338 16.6084 9.17505 17.3167 9.17505 18.15C9.17505 18.9834 8.88338 19.6917 8.30005 20.275C7.88338 20.6917 7.18772 21.05 6.21305 21.35C5.23772 21.65 3.89172 21.9167 2.17505 22.15C2.40838 20.4334 2.67505 19.0917 2.97505 18.125C3.27505 17.1584 3.63338 16.4667 4.05005 16.05Z" fill="#0D0D0D"/>
</svg>
