<svg width="495" height="396" viewBox="0 0 495 396" fill="none" xmlns="http://www.w3.org/2000/svg">
<path d="M454.869 112.575L424.438 158.355C439.113 187.632 446.298 220.093 445.348 252.829C444.398 285.566 435.344 317.555 418.995 345.931H76.0945C54.8468 309.062 46.0424 266.326 50.9866 224.058C55.9308 181.79 74.3605 142.241 103.543 111.274C132.726 80.3064 171.109 59.5694 213.001 52.137C254.893 44.7045 298.065 50.9724 336.115 70.0112L381.885 39.5734C335.286 9.68537 280.012 -3.70755 224.905 1.53695C169.797 6.78144 118.04 30.3603 77.9128 68.502C37.7852 106.644 11.6055 157.144 3.56132 211.926C-4.48285 266.708 6.07328 322.605 33.5412 370.677C37.8587 378.158 44.058 384.377 51.5232 388.719C58.9884 393.06 67.4595 395.372 76.0945 395.424H418.748C427.467 395.458 436.04 393.188 443.6 388.842C451.159 384.497 457.437 378.23 461.796 370.677C484.591 331.181 496.031 286.151 494.852 240.561C493.673 194.971 479.922 150.593 455.116 112.327L454.869 112.575ZM212.661 281.839C217.256 286.44 222.714 290.091 228.72 292.581C234.727 295.072 241.166 296.354 247.669 296.354C254.171 296.354 260.61 295.072 266.617 292.581C272.624 290.091 278.081 286.44 282.676 281.839L422.706 71.7435L212.661 211.807C208.061 216.403 204.411 221.862 201.921 227.87C199.431 233.878 198.149 240.319 198.149 246.823C198.149 253.327 199.431 259.767 201.921 265.775C204.411 271.784 208.061 277.242 212.661 281.839Z" fill="#0D0D0D"/>
</svg>
