<svg width="80" height="78" viewBox="0 0 80 78" fill="none" xmlns="http://www.w3.org/2000/svg">
<path d="M39.6 45.8C38.9333 45.8 38.2833 45.7167 37.65 45.55C37.0167 45.3833 36.4 45.1333 35.8 44.8L2 26.4C1.26667 26 0.75 25.5 0.45 24.9C0.15 24.3 0 23.6333 0 22.9C0 22.1667 0.15 21.5 0.45 20.9C0.75 20.3 1.26667 19.8 2 19.4L35.8 1C36.4 0.666667 37.0167 0.416667 37.65 0.25C38.2833 0.0833333 38.9333 0 39.6 0C40.2667 0 40.9167 0.0833333 41.55 0.25C42.1833 0.416667 42.8 0.666667 43.4 1L77.2 19.4C77.9333 19.8 78.45 20.3 78.75 20.9C79.05 21.5 79.2 22.1667 79.2 22.9C79.2 23.6333 79.05 24.3 78.75 24.9C78.45 25.5 77.9333 26 77.2 26.4L43.4 44.8C42.8 45.1333 42.1833 45.3833 41.55 45.55C40.9167 45.7167 40.2667 45.8 39.6 45.8ZM39.6 53.8L71 36.7C71.1333 36.6333 71.7667 36.4667 72.9 36.2C74.0333 36.2 74.9833 36.5833 75.75 37.35C76.5167 38.1167 76.9 39.0667 76.9 40.2C76.9 40.9333 76.7333 41.6 76.4 42.2C76.0667 42.8 75.5333 43.3 74.8 43.7L43.4 60.8C42.8 61.1333 42.1833 61.3833 41.55 61.55C40.9167 61.7167 40.2667 61.8 39.6 61.8C38.9333 61.8 38.2833 61.7167 37.65 61.55C37.0167 61.3833 36.4 61.1333 35.8 60.8L4.4 43.7C3.66667 43.3 3.13333 42.8 2.8 42.2C2.46667 41.6 2.3 40.9333 2.3 40.2C2.3 39.0667 2.68333 38.1167 3.45 37.35C4.21667 36.5833 5.16667 36.2 6.3 36.2C6.63333 36.2 6.95 36.25 7.25 36.35C7.55 36.45 7.86667 36.5667 8.2 36.7L39.6 53.8ZM39.6 69.8L71 52.7C71.1333 52.6333 71.7667 52.4667 72.9 52.2C74.0333 52.2 74.9833 52.5833 75.75 53.35C76.5167 54.1167 76.9 55.0667 76.9 56.2C76.9 56.9333 76.7333 57.6 76.4 58.2C76.0667 58.8 75.5333 59.3 74.8 59.7L43.4 76.8C42.8 77.1333 42.1833 77.3833 41.55 77.55C40.9167 77.7167 40.2667 77.8 39.6 77.8C38.9333 77.8 38.2833 77.7167 37.65 77.55C37.0167 77.3833 36.4 77.1333 35.8 76.8L4.4 59.7C3.66667 59.3 3.13333 58.8 2.8 58.2C2.46667 57.6 2.3 56.9333 2.3 56.2C2.3 55.0667 2.68333 54.1167 3.45 53.35C4.21667 52.5833 5.16667 52.2 6.3 52.2C6.63333 52.2 6.95 52.25 7.25 52.35C7.55 52.45 7.86667 52.5667 8.2 52.7L39.6 69.8Z" fill="#0D0D0D"/>
</svg>
